# xmcd
#
# Track frame offsets: 
#        150
#        14217
#        30550
#        40678
#        54085
#        68367
#        80860
#        95184
#        105772
#        120619
#
# Disc length: 1760 seconds
#
# Revision: 4
# Processed by: cddbd v1.5.1PL0 Copyright (c) Steve Scherf et al.
# Submitted via: ExactAudioCopy v0.95a5
#
DISCID=7606de0a
DTITLE=Alan Jackson - Here In The Real World
DYEAR=1989
DGENRE=Country
TTITLE0=Ace of Hearts
TTITLE1=Here In The Real World
TTITLE2=Blue Blooded Woman
TTITLE3=Wanted
TTITLE4=Chasin' That Neon Rainbow
TTITLE5=She Don't Get The Blues
TTITLE6=I'd Love You All Over Again
TTITLE7=Dog River Blues
TTITLE8=Home
TTITLE9=Short Sweet Ride
EXTD=(c)1989 Arista Records, Inc. - BMG\nupc 4007192108176\nKatalog: 2
EXTD=10817 
EXTT0=
EXTT1=
EXTT2=
EXTT3=
EXTT4=
EXTT5=
EXTT6=
EXTT7=
EXTT8=
EXTT9=
PLAYORDER=
